<?xml version="1.0" encoding="utf-8"?>
<!-- Generator: Adobe Illustrator 23.0.0, SVG Export Plug-In . SVG Version: 6.00 Build 0)  -->
<svg version="1.1" id="Capa_1" xmlns="http://www.w3.org/2000/svg" xmlns:xlink="http://www.w3.org/1999/xlink" x="0px" y="0px"
	 viewBox="0 0 18 18" style="enable-background:new 0 0 18 18;" xml:space="preserve">
<style type="text/css">
	.st0{fill:none;stroke:#1D1D1B;stroke-miterlimit:10;}
	.st1{fill:#000092;}
	.st2{fill:none;stroke:#000092;stroke-miterlimit:10;}
</style>
<path class="st0" d="M-22.7-37.7"/>
<path class="st0" d="M-324.5-136.7"/>
<path class="st0" d="M-349.7-97.9"/>
<path class="st0" d="M6.3,24.6"/>
<g>
	<g>
		<g>
			<g>
				<g>
					<path class="st1" d="M14.8,17H3.4L1.8,6.3h14.5l0.1,0.1l0,0L14.8,17z M3.6,16.8h11l1.5-10.3H2L3.6,16.8z"/>
				</g>
			</g>
			<g>
				<g>
					<path class="st1" d="M5.4,16.4H4.1L2.7,7h1.9L5.4,16.4z M4.3,16.2h0.9l-0.8-9H2.9"/>
				</g>
			</g>
			<g>
				<g>
					<path class="st1" d="M7.6,16.4H6.1L5.2,7h1.9L7.6,16.4z M6.3,16.2h1.1L7,7.2H5.4L6.3,16.2z"/>
				</g>
			</g>
			<g>
				<g>
					<path class="st1" d="M10,16.4H8.1L7.7,7h2.6L10,16.4z M8.3,16.2h1.5l0.3-9H8L8.3,16.2z"/>
				</g>
			</g>
			<g>
				<g>
					<path class="st1" d="M12.1,16.4h-1.4L11,7h2L12.1,16.4z M10.9,16.2h1l0.8-9h-1.5L10.9,16.2z"/>
				</g>
			</g>
			<g>
				<g>
					<path class="st1" d="M14.1,16.4h-1.4L13.5,7h1.9L14.1,16.4z M12.9,16.2h1l1.3-9h-1.5L12.9,16.2z"/>
				</g>
			</g>
		</g>
		<g>
			<g>
				<path class="st1" d="M1.8,6.4c0-0.1-0.4-1.5,0.3-2.5c0.4-0.5,1-0.7,1.9-0.7c0.1-0.2,0.5-1,1.2-1.4C5.6,1.7,6,1.7,6.4,1.9
					c0.1-0.2,0.4-0.6,0.9-0.7C7.8,0.9,8.4,1,9,1.3c0.2-0.1,0.9-0.4,1.6-0.2c0.4,0.1,0.8,0.4,1,0.8c0.2,0,1-0.2,1.6,0.2
					c0.4,0.2,0.6,0.6,0.7,1.2c0.3,0,1-0.1,1.6,0.4c0.6,0.5,0.8,1.5,0.7,2.8l-0.2,0c0.1-1.3-0.1-2.2-0.6-2.6C14.8,3.3,14,3.5,14,3.5
					l-0.1,0l0-0.1c-0.1-0.5-0.3-0.9-0.7-1.1c-0.6-0.4-1.5-0.2-1.6-0.2l-0.1,0l0-0.1c-0.8-1.4-2.3-0.5-2.4-0.5L9,1.5l0,0
					C8.4,1.2,7.8,1.1,7.4,1.3C6.8,1.5,6.6,2,6.6,2l0,0.1l-0.1,0C6,1.9,5.6,1.9,5.3,2.1C4.5,2.5,4.2,3.4,4.2,3.4l0,0.1l-0.1,0
					c-0.8,0-1.4,0.2-1.8,0.6C1.6,4.9,2,6.4,2,6.4L1.8,6.4z"/>
			</g>
		</g>
	</g>
	<g>
		<g>
			<path class="st1" d="M3.2,5.6L3,5.5c0,0,0.3-0.7,0.9-0.9c0.3-0.1,0.6-0.1,0.9,0.1c0.1-0.1,0.3-0.3,0.7-0.4c0.4-0.1,0.8,0,1.2,0.3
				L6.6,4.8c-0.4-0.3-0.7-0.3-1-0.3C5.2,4.6,5,4.9,5,4.9l0,0.1l-0.1,0C4.6,4.8,4.3,4.8,4,4.8C3.5,5,3.2,5.6,3.2,5.6z"/>
		</g>
	</g>
	<g>
		<g>
			<path class="st1" d="M6.7,3.3L6.5,3.2c0,0,0.4-0.6,1.1-0.7c0.3,0,0.6,0,0.8,0.2c0.1-0.1,0.4-0.3,0.7-0.3c0.4,0,0.8,0.1,1.1,0.5
				L10.2,3c-0.3-0.3-0.7-0.4-1-0.4c-0.4,0-0.6,0.3-0.6,0.3L8.5,2.9L8.4,2.8C8.2,2.7,7.9,2.6,7.6,2.6C7.1,2.7,6.7,3.3,6.7,3.3z"/>
		</g>
	</g>
	<g>
		<g>
			<path class="st1" d="M11.7,5.6C11.4,5.2,11.1,5,10.8,5c-0.4-0.1-0.7,0.2-0.7,0.2l-0.1,0.1L10,5.1C9.8,4.9,9.6,4.8,9.3,4.8
				c-0.5,0-1,0.4-1,0.4L8.1,5c0,0,0.6-0.5,1.2-0.5c0.3,0,0.6,0.1,0.8,0.4c0.1-0.1,0.4-0.2,0.8-0.2c0.4,0.1,0.7,0.3,1,0.7L11.7,5.6z"
				/>
		</g>
	</g>
	<g>
		<g>
			<path class="st1" d="M15,5.4c-0.2-0.4-0.4-0.7-0.7-0.8c-0.4-0.2-0.7,0-0.7,0l-0.1,0l0-0.1c-0.1-0.3-0.3-0.4-0.6-0.5
				c-0.5-0.2-1.1,0.1-1.1,0.1l-0.1-0.2c0,0,0.7-0.3,1.3-0.1c0.3,0.1,0.5,0.3,0.7,0.6c0.1,0,0.4-0.1,0.8,0.1c0.3,0.2,0.6,0.5,0.8,1
				L15,5.4z"/>
		</g>
	</g>
	<g>
		<g>
			<path class="st2" d="M4.1,5.1"/>
		</g>
	</g>
</g>
</svg>
