<?xml version="1.0" encoding="utf-8"?>
<!-- Generator: Adobe Illustrator 23.0.0, SVG Export Plug-In . SVG Version: 6.00 Build 0)  -->
<svg version="1.1" id="Capa_1" xmlns="http://www.w3.org/2000/svg" xmlns:xlink="http://www.w3.org/1999/xlink" x="0px" y="0px"
	 viewBox="0 0 222 36" style="enable-background:new 0 0 222 36;" xml:space="preserve">
<style type="text/css">
	.st0{fill:none;stroke:#1D1D1B;stroke-miterlimit:10;}
	.st1{fill:#000092;}
	.st2{fill:none;stroke:#000092;stroke-miterlimit:10;}
</style>
<path class="st0" d="M79.3-28.7"/>
<path class="st0" d="M-222.5-127.7"/>
<path class="st0" d="M-247.7-88.9"/>
<g>
	<path class="st1" d="M71.8,18.8h-4.7c0-3.3-1.5-5-4.2-5c-2.5,0-4.6,1.7-4.6,5v4.5c0,3.3,2.1,5,4.6,5c3,0,4.4-1.6,4.4-5h4.5
		c0,5.8-3.8,8.9-8.6,8.9h-0.4c-5.4,0-9.5-3.3-9.5-9.6v-3.1c0-6.1,4.2-9.6,9.4-9.6H63C67.9,9.8,71.8,12.8,71.8,18.8z"/>
	<path class="st1" d="M80,12.7h-4.7V9.1H80V12.7z M80,15.7v16.2h-4.6V15.7H80z"/>
	<path class="st1" d="M98.9,20.6v11.3h-4.6V21.6c0-1.6-1-2.9-2.5-2.9c-1.6,0-3,1.4-3,3.2v9.9h-4.6V15.7h3.4l0.5,2.4
		c1-1.4,2.7-2.7,5.2-2.7C96.4,15.4,98.9,17.1,98.9,20.6z"/>
	<path class="st1" d="M118.1,22.2v2.4H107c0,3,1.1,4.5,3.5,4.5c1.9,0,3.1-1,3.1-3.2h4.4c0,4.5-3.6,6.4-7.3,6.4h-0.5
		c-4.5,0-7.9-2.9-7.9-7.9v-0.9c0-5,3.5-7.9,7.9-7.9h0.5C114.6,15.4,118.1,17.8,118.1,22.2z M107,22h6.4c0-2-0.8-3.5-3.1-3.5
		C108.4,18.5,107.2,20.1,107,22z"/>
	<path class="st1" d="M134.9,18c1.2-1.8,2.8-2.6,4.7-2.6c2.9,0,5.3,1.8,5.3,5.2v11.3h-4.6V21.5c0-1.8-0.8-2.8-2.1-2.8
		c-1.5,0-2.6,1.3-2.6,3.1v10h-4.6V21.5c0-1.8-0.9-2.8-2.2-2.8c-1.5,0-2.6,1.3-2.6,3.1v10h-4.6V15.7h3.5l0.5,2.4
		c1.2-1.8,2.8-2.7,4.7-2.7C132.3,15.4,134.1,16.3,134.9,18z"/>
	<path class="st1" d="M163.5,20.4v7.5c0,0.8,0.5,1.1,0.9,1.1c0.5,0,1.1-0.3,1.3-0.4v2.9c-0.2,0.1-1.2,0.7-2.8,0.7
		c-2.4,0-3.5-1.1-3.7-2.7c-1.1,1.4-2.9,2.7-5.4,2.7s-5.5-0.7-5.5-4.7c0-4.6,4.2-5.4,10.7-5.4V21c0-1.3-0.7-2.4-2.9-2.4
		c-1.9,0-2.8,1.1-2.8,1.9v0.3h-4.5c0-0.2-0.1-0.4-0.1-0.6c0-2.7,2.9-4.7,7.1-4.7h0.7C161.2,15.4,163.5,17.4,163.5,20.4z M153,27.1
		c0,1.4,0.8,1.9,2.4,1.9c1.6,0,3.6-1.4,3.6-3.5v-0.9C155.1,24.6,153,25.3,153,27.1z"/>
	<path class="st1" d="M182.8,20.6v11.3h-4.6V21.6c0-1.6-1-2.9-2.5-2.9c-1.6,0-3,1.4-3,3.2v9.9H168V15.7h3.4l0.5,2.4
		c1-1.4,2.7-2.7,5.2-2.7C180.2,15.4,182.8,17.1,182.8,20.6z"/>
	<path class="st1" d="M191.5,15.7v16.2h-4.6V15.7H191.5z M194.6,9.1L194.6,9.1l-3.8,4.6h-3.2l2.9-4.6L194.6,9.1L194.6,9.1z"/>
	<path class="st1" d="M210.1,20.4v7.5c0,0.8,0.5,1.1,0.9,1.1c0.5,0,1.1-0.3,1.3-0.4v2.9c-0.2,0.1-1.2,0.7-2.8,0.7
		c-2.4,0-3.5-1.1-3.7-2.7c-1.1,1.4-2.9,2.7-5.4,2.7s-5.5-0.7-5.5-4.7c0-4.6,4.2-5.4,10.7-5.4V21c0-1.3-0.7-2.4-2.9-2.4
		c-1.9,0-2.8,1.1-2.8,1.9v0.3h-4.5c0-0.2-0.1-0.4-0.1-0.6c0-2.7,2.9-4.7,7.1-4.7h0.7C207.8,15.4,210.1,17.4,210.1,20.4z M199.6,27.1
		c0,1.4,0.8,1.9,2.4,1.9c1.6,0,3.6-1.4,3.6-3.5v-0.9C201.7,24.6,199.6,25.3,199.6,27.1z"/>
</g>
<path class="st0" d="M108.3,33.6"/>
<g>
	<g>
		<g>
			<g>
				<path class="st1" d="M39.2,36H13.6l-3.6-24h32.5l0.1,0.1l0,0.1L39.2,36z M14,35.5h24.8l3.3-23.1H10.5L14,35.5z"/>
			</g>
			<g>
				<path class="st1" d="M18.2,34.7h-3L12,13.5h4.2L18.2,34.7z M15.6,34.3h2.1L15.8,14h-3.2"/>
			</g>
			<g>
				<path class="st1" d="M23,34.7h-3.3l-2-21.2h4.4L23,34.7z M20.1,34.3h2.4L21.6,14h-3.4L20.1,34.3z"/>
			</g>
			<g>
				<path class="st1" d="M28.6,34.7h-4.3l-0.9-21.2h5.8L28.6,34.7z M24.7,34.3h3.4L28.7,14h-4.8L24.7,34.3z"/>
			</g>
			<g>
				<path class="st1" d="M33.2,34.7h-3.2l0.7-21.2H35L33.2,34.7z M30.4,34.3h2.3L34.5,14h-3.5L30.4,34.3z"/>
			</g>
			<g>
				<path class="st1" d="M37.7,34.7h-3.2l1.9-21.2h4.2L37.7,34.7z M35,34.3h2.3L40.2,14h-3.3L35,34.3z"/>
			</g>
		</g>
		<g>
			<path class="st1" d="M10,12.2c0-0.1-0.9-3.5,0.7-5.6c0.9-1.1,2.3-1.6,4.2-1.5c0.2-0.6,1-2.3,2.6-3.1c0.9-0.4,1.8-0.5,2.9-0.1
				c0.2-0.4,0.8-1.3,2-1.7c1.1-0.4,2.4-0.3,3.9,0.4c0.4-0.2,2-1,3.5-0.6c0.9,0.2,1.7,0.8,2.3,1.8c0.5-0.1,2.3-0.4,3.7,0.5
				c0.8,0.5,1.4,1.4,1.6,2.6c0.6-0.1,2.2-0.3,3.5,0.8c1.3,1.1,1.9,3.3,1.6,6.3l-0.5,0c0.3-2.9-0.2-4.9-1.4-5.9
				c-1.4-1.2-3.3-0.7-3.3-0.7l-0.3,0.1l0-0.3c-0.2-1.2-0.7-2-1.5-2.5c-1.5-1-3.5-0.4-3.5-0.4l-0.2,0l-0.1-0.2
				c-1.9-3.2-5.3-1.2-5.4-1.1l-0.1,0l-0.1,0c-1.4-0.7-2.6-0.8-3.6-0.5c-1.3,0.5-1.8,1.6-1.8,1.6l-0.1,0.2l-0.2-0.1
				c-1-0.3-1.9-0.3-2.7,0.1c-1.7,0.8-2.4,3-2.4,3l-0.1,0.1l-0.2,0c-1.9-0.1-3.2,0.4-4,1.4c-1.5,1.9-0.7,5.1-0.6,5.2L10,12.2z"/>
		</g>
	</g>
	<g>
		<path class="st1" d="M13.2,10.4l-0.4-0.2c0-0.1,0.8-1.5,2.1-2c0.6-0.2,1.3-0.1,1.9,0.1c0.2-0.3,0.7-0.8,1.5-0.9
			c0.8-0.2,1.7,0.1,2.7,0.7l-0.3,0.4c-0.9-0.6-1.6-0.8-2.3-0.6c-0.9,0.2-1.3,0.9-1.3,0.9L17,9l-0.2-0.1c-0.6-0.3-1.2-0.4-1.7-0.2
			C13.9,9,13.2,10.4,13.2,10.4z"/>
	</g>
	<g>
		<path class="st1" d="M21.1,5.1l-0.4-0.3c0-0.1,1-1.4,2.4-1.6c0.6-0.1,1.3,0,1.9,0.4C25.2,3.4,25.8,3,26.6,3
			c0.8-0.1,1.7,0.3,2.6,1.1l-0.3,0.3c-0.8-0.7-1.5-1-2.2-1c-0.9,0.1-1.4,0.7-1.4,0.7l-0.1,0.2l-0.2-0.1c-0.5-0.4-1.1-0.5-1.7-0.4
			C22,3.9,21.1,5.1,21.1,5.1z"/>
	</g>
	<g>
		<path class="st1" d="M32.3,10.4c-0.6-0.8-1.3-1.3-2-1.4c-0.9-0.1-1.5,0.4-1.5,0.4l-0.2,0.1l-0.1-0.2c-0.5-0.5-1-0.8-1.6-0.8
			c-1.2-0.1-2.3,0.9-2.4,1l-0.3-0.3C24.3,9,25.5,8,26.9,8c0.6,0,1.2,0.3,1.8,0.8c0.3-0.2,0.9-0.4,1.7-0.3c0.8,0.1,1.6,0.7,2.3,1.6
			L32.3,10.4z"/>
	</g>
	<g>
		<path class="st1" d="M39.8,9.9c-0.3-1-0.9-1.6-1.5-1.9C37.5,7.7,36.7,8,36.7,8l-0.2,0.1l-0.1-0.2c-0.3-0.6-0.7-1-1.3-1.2
			C33.9,6.3,32.6,7,32.6,7l-0.2-0.4c0.1,0,1.5-0.8,2.9-0.3c0.6,0.2,1.1,0.6,1.5,1.2c0.3-0.1,1-0.2,1.7,0.1c0.8,0.3,1.4,1.1,1.8,2.2
			L39.8,9.9z"/>
	</g>
	<g>
		<path class="st2" d="M15.1,9.2"/>
	</g>
</g>
</svg>
